<?xml version="1.0" standalone="no"?>
<!DOCTYPE svg PUBLIC "-//W3C//DTD SVG 20010904//EN"
 "http://www.w3.org/TR/2001/REC-SVG-20010904/DTD/svg10.dtd">
<svg version="1.0" xmlns="http://www.w3.org/2000/svg"
 width="700.000000pt" height="700.000000pt" viewBox="0 0 700.000000 700.000000"
 preserveAspectRatio="xMidYMid meet">
<metadata>
Created by potrace 1.14, written by Peter Selinger 2001-2017
</metadata>
<g transform="translate(0.000000,700.000000) scale(0.100000,-0.100000)"
fill="#000000" stroke="none">
<path d="M3279 6996 c-2 -2 -43 -6 -90 -10 -47 -4 -95 -8 -105 -10 -10 -2 -46
-7 -79 -12 -33 -4 -62 -8 -65 -9 -3 0 -27 -4 -55 -9 -27 -4 -106 -21 -175 -37
-69 -17 -135 -32 -147 -35 -13 -2 -78 -23 -145 -45 -605 -201 -1109 -532
-1533 -1004 -223 -248 -439 -579 -567 -868 -27 -62 -53 -121 -58 -132 -40 -83
-128 -359 -169 -525 -12 -50 -38 -184 -47 -244 -3 -21 -7 -47 -9 -58 -5 -26
-14 -101 -24 -213 -8 -85 -6 -555 3 -620 2 -16 7 -52 10 -80 4 -27 9 -63 11
-80 3 -16 7 -48 10 -70 22 -154 109 -493 154 -600 5 -11 30 -75 55 -142 54
-140 181 -394 249 -501 26 -40 47 -76 47 -81 0 -5 3 -11 8 -13 4 -2 33 -41 64
-88 170 -255 431 -532 712 -758 89 -72 367 -262 382 -262 4 0 15 -6 23 -14 31
-27 308 -163 446 -219 454 -183 870 -259 1375 -252 129 2 246 6 260 9 14 2 56
7 94 11 38 3 72 8 75 10 3 1 33 6 65 9 33 4 78 11 100 16 23 5 75 16 116 26
316 70 674 208 944 363 49 28 91 51 93 51 10 0 268 180 353 247 151 118 324
281 450 422 36 41 70 79 76 85 6 6 48 61 94 121 150 197 277 405 383 628 26
53 47 99 47 102 0 2 11 28 24 57 25 55 78 204 115 318 47 150 109 441 126 600
4 36 9 81 12 100 8 73 10 519 2 610 -43 474 -173 922 -386 1330 -371 708 -977
1272 -1708 1590 -272 118 -573 206 -840 246 -27 4 -57 9 -65 10 -8 2 -44 6
-80 10 -36 3 -78 8 -95 11 -34 5 -531 14 -536 9z m-1397 -1944 c15 -9 35 -32
45 -52 16 -32 17 -108 18 -1007 l0 -973 123 -1 c154 0 237 0 307 0 l55 1 2
979 c3 972 3 980 24 1007 79 107 230 86 261 -36 5 -20 9 -457 9 -992 -1 -845
1 -958 14 -959 8 -1 41 -1 73 0 132 3 192 -44 192 -150 0 -99 -56 -153 -163
-155 -37 -2 -78 -3 -92 -3 l-25 -1 0 -337 c0 -320 -1 -340 -20 -372 -27 -47
-63 -70 -111 -75 -63 -7 -116 22 -143 77 -12 25 -21 49 -20 53 1 5 1 155 0
334 l-1 325 -240 0 c-132 0 -241 -2 -241 -5 -1 -3 -2 -156 -4 -340 -1 -205 -6
-345 -12 -360 -16 -36 -53 -67 -96 -78 -66 -18 -129 6 -163 62 -17 28 -19 59
-22 374 -3 314 -4 342 -20 343 -9 0 -49 1 -89 2 -77 3 -107 17 -146 69 -28 37
-33 107 -12 152 32 67 73 84 203 85 l62 1 0 958 c0 612 4 970 10 993 26 93
135 132 222 81z m2027 -15 c55 -50 52 17 52 -1395 0 -1077 3 -1311 14 -1338
23 -56 62 -69 205 -69 145 0 193 12 215 55 13 25 15 205 15 1345 0 1192 2
1320 16 1348 22 41 37 55 78 72 69 29 141 2 181 -66 19 -33 20 -58 21 -1339 1
-718 2 -1315 3 -1326 0 -12 12 -33 27 -47 33 -33 138 -52 246 -43 99 8 145 26
159 63 8 20 11 423 12 1348 l2 1320 23 36 c25 41 81 72 125 71 49 -1 100 -35
123 -80 l22 -41 0 -1321 c0 -822 -4 -1338 -10 -1368 -33 -155 -151 -280 -307
-322 -25 -6 -114 -12 -200 -12 -176 -1 -230 10 -321 65 l-56 33 -38 -28 c-77
-56 -137 -71 -296 -74 -170 -4 -233 5 -315 46 -103 51 -175 129 -215 235 l-23
60 -2 1335 c-1 816 2 1347 8 1365 14 44 64 92 106 102 44 11 98 -1 130 -30z"/>
</g>
</svg>
